<svg width="22" height="22" viewBox="0 0 22 22" fill="none" xmlns="http://www.w3.org/2000/svg">
<path fill-rule="evenodd" clip-rule="evenodd" d="M0 1.1C0 0.492487 0.492487 0 1.1 0H20.9C21.5075 0 22 0.492487 22 1.1V20.9C22 21.5075 21.5075 22 20.9 22H1.1C0.492487 22 0 21.5075 0 20.9V1.1ZM2.2 6.59346V2.2H6.61034V6.59346H2.2ZM2.2 8.79346V13.2001H6.61034V8.79346H2.2ZM2.2 15.4001V19.8H6.61034V15.4001H2.2ZM8.81034 19.8H13.2168V15.4001H8.81034V19.8ZM15.4168 19.8H19.8V15.4001H15.4168V19.8ZM19.8 13.2001V8.79346H15.4168V13.2001H19.8ZM19.8 6.59346V2.2H15.4168V6.59346H19.8ZM13.2168 2.2H8.81034V6.59346H13.2168V2.2ZM8.81034 13.2001V8.79346H13.2168V13.2001H8.81034Z" fill="#8E8E8E"/>
</svg>
