<svg width="23" height="20" viewBox="0 0 23 20" fill="none" xmlns="http://www.w3.org/2000/svg">
<path d="M11.314 4.18388L10.6642 3.55343C10.5296 3.42293 10.4002 3.29788 10.2744 3.1764C10.0546 2.96405 9.84611 2.7626 9.64146 2.56196C8.00072 0.954182 5.74236 0.498979 3.93299 1.28021L3.93283 1.28028C2.11907 2.06299 0.857025 4.05646 0.901114 6.28829L0.901115 6.28835C0.934423 7.9802 1.64327 9.48035 2.67634 10.9646L2.67663 10.965C4.93146 14.2083 7.99036 16.6444 11.2533 19.0303C13.6308 17.2994 15.895 15.5131 17.8503 13.3979L18.5111 14.0088L17.8503 13.3979C19.5094 11.6031 20.8746 9.78765 21.4325 7.53964L21.4326 7.5394C22.0207 5.17278 21.0148 2.70722 19.1001 1.55506L11.314 4.18388ZM11.314 4.18388L11.9405 3.53026M11.314 4.18388L11.9405 3.53026M11.9405 3.53026C12.0847 3.3799 12.212 3.2418 12.3317 3.11196C12.5615 2.86276 12.7633 2.64397 13.0019 2.42722L13.0023 2.4269M11.9405 3.53026L13.0023 2.4269M13.0023 2.4269C14.8653 0.732962 17.2782 0.459449 19.1 1.55496L13.0023 2.4269ZM11.0873 19.151C11.0875 19.1509 11.0877 19.1507 11.088 19.1505C11.0878 19.1507 11.0875 19.1508 11.0873 19.151L11.0873 19.151ZM11.1764 19.1008L11.1835 19.1004C11.1896 19.1003 11.2038 19.1003 11.225 19.1027C11.2453 19.1051 11.2813 19.1108 11.3278 19.1259C11.3732 19.1407 11.444 19.1696 11.5215 19.226L11.1764 19.1008Z" fill="#FE0135" stroke="#FE0135" stroke-width="1.8"/>
</svg>
