<svg width="22" height="24" viewBox="0 0 22 24" fill="none" xmlns="http://www.w3.org/2000/svg">
<path fill-rule="evenodd" clip-rule="evenodd" d="M0.860565 1.17847V22.8309C0.860565 23.0936 0.963999 23.3459 1.1485 23.533C1.53627 23.9262 2.16941 23.9307 2.56268 23.5429L11.1113 15.1138L19.6599 23.5429C19.847 23.7274 20.0993 23.8309 20.362 23.8309C20.9143 23.8309 21.362 23.3832 21.362 22.8309V1.17847C21.362 0.902324 21.1382 0.678467 20.862 0.678467H1.36057C1.08442 0.678467 0.860565 0.902324 0.860565 1.17847ZM2.36057 21.6357V2.17847H19.862V21.6357L11.8134 13.6996C11.4241 13.3156 10.7985 13.3156 10.4092 13.6996L2.36057 21.6357Z" fill="#262626"/>
</svg>
