<svg width="22" height="23" viewBox="0 0 22 23" fill="none" xmlns="http://www.w3.org/2000/svg">
<path fill-rule="evenodd" clip-rule="evenodd" d="M11 14.5903C13.4853 14.5903 15.5 12.5756 15.5 10.0903C15.5 7.60505 13.4853 5.59033 11 5.59033C8.51472 5.59033 6.5 7.60505 6.5 10.0903C6.5 12.5756 8.51472 14.5903 11 14.5903ZM11 12.5903C12.3807 12.5903 13.5 11.471 13.5 10.0903C13.5 8.70962 12.3807 7.59033 11 7.59033C9.61929 7.59033 8.5 8.70962 8.5 10.0903C8.5 11.471 9.61929 12.5903 11 12.5903Z" fill="black"/>
<path fill-rule="evenodd" clip-rule="evenodd" d="M20 22.1685C21.1046 22.1685 22 21.273 22 20.1685V4.16846C22 3.06389 21.1046 2.16846 20 2.16846H13.9949C13.719 2.16846 13.4553 2.05445 13.2663 1.85341L11.8201 0.315044C11.4319 -0.0978753 10.7785 -0.105988 10.3801 0.297166L8.82486 1.87129C8.63699 2.06144 8.38081 2.16846 8.1135 2.16846H2C0.895431 2.16846 0 3.06389 0 4.16846V20.1685C0 21.273 0.89543 22.1685 2 22.1685H20ZM20 20.1685V4.16846H13.9949C13.1671 4.16846 12.3761 3.82643 11.8092 3.22333L11.0736 2.44092L10.2476 3.27696C9.68395 3.84741 8.91542 4.16846 8.1135 4.16846L2 4.16846L2 20.1685L3.72489 20.1685C3.85515 17.5232 6.04116 15.4185 8.71875 15.4185H13.625C16.3026 15.4185 18.4886 17.5232 18.6189 20.1685L20 20.1685ZM16.6147 20.1685C16.4877 18.6286 15.1977 17.4185 13.625 17.4185H8.71875C7.14608 17.4185 5.85606 18.6286 5.72902 20.1685H16.6147Z" fill="black"/>
</svg>
